<svg xmlns="http://www.w3.org/2000/svg" viewBox="0 0 1100 720" font-family="'Segoe UI',Arial,sans-serif" font-size="12">
  <defs>
    <marker id="arr" markerWidth="8" markerHeight="8" refX="6" refY="3" orient="auto">
      <path d="M0,0 L0,6 L8,3 z" fill="#555"/>
    </marker>
    <marker id="arr-blue" markerWidth="8" markerHeight="8" refX="6" refY="3" orient="auto">
      <path d="M0,0 L0,6 L8,3 z" fill="#3b82f6"/>
    </marker>
    <marker id="arr-grn" markerWidth="8" markerHeight="8" refX="6" refY="3" orient="auto">
      <path d="M0,0 L0,6 L8,3 z" fill="#22c55e"/>
    </marker>
  </defs>
  <rect width="1100" height="720" fill="#0f172a"/>
  <!-- Title -->
  <text x="550" y="36" text-anchor="middle" font-size="18" font-weight="bold" fill="#f8fafc">KiloCode Contract Kit v17 — Ecosystem Topology</text>
  <text x="550" y="56" text-anchor="middle" font-size="11" fill="#94a3b8">VPS 187.77.30.206 · Port Registry · All Services</text>

  <!-- ── BROWSER / USER ── -->
  <rect x="20" y="80" width="140" height="50" rx="8" fill="#1e293b" stroke="#64748b" stroke-width="1.5"/>
  <text x="90" y="101" text-anchor="middle" fill="#f8fafc" font-weight="bold">👤 Browser</text>
  <text x="90" y="118" text-anchor="middle" fill="#94a3b8" font-size="10">User / Dashboard</text>

  <!-- ── WEBUI HUB ── -->
  <rect x="220" y="70" width="180" height="70" rx="8" fill="#1e3a5f" stroke="#3b82f6" stroke-width="2"/>
  <text x="310" y="94" text-anchor="middle" fill="#60a5fa" font-weight="bold" font-size="13">WebUI Hub</text>
  <text x="310" y="110" text-anchor="middle" fill="#93c5fd" font-size="10">hub.html · dashboard.py</text>
  <text x="310" y="126" text-anchor="middle" fill="#60a5fa" font-size="11" font-weight="bold">:8095</text>

  <!-- ── KILOCODE VSIX ── -->
  <rect x="220" y="180" width="180" height="60" rx="8" fill="#1e293b" stroke="#8b5cf6" stroke-width="2"/>
  <text x="310" y="204" text-anchor="middle" fill="#a78bfa" font-weight="bold" font-size="13">KiloCode VSIX</text>
  <text x="310" y="220" text-anchor="middle" fill="#c4b5fd" font-size="10">VS Code Extension</text>
  <text x="310" y="233" text-anchor="middle" fill="#a78bfa" font-size="11" font-weight="bold">syncs :8081/:8082</text>

  <!-- ── RUNTIME CORE ── -->
  <rect x="480" y="70" width="180" height="70" rx="8" fill="#1f3720" stroke="#22c55e" stroke-width="2"/>
  <text x="570" y="94" text-anchor="middle" fill="#4ade80" font-weight="bold" font-size="13">Runtime Core</text>
  <text x="570" y="110" text-anchor="middle" fill="#86efac" font-size="10">core.py · EventBus</text>
  <text x="570" y="126" text-anchor="middle" fill="#4ade80" font-size="11" font-weight="bold">:8081</text>

  <!-- ── SETTINGS SERVICE ── -->
  <rect x="480" y="180" width="180" height="60" rx="8" fill="#1f2d1e" stroke="#86efac" stroke-width="1.5"/>
  <text x="570" y="204" text-anchor="middle" fill="#86efac" font-weight="bold" font-size="13">Settings Service</text>
  <text x="570" y="220" text-anchor="middle" fill="#bbf7d0" font-size="10">settings_canonical.py</text>
  <text x="570" y="233" text-anchor="middle" fill="#86efac" font-size="11" font-weight="bold">:8082</text>

  <!-- ── HERMES ORCHESTRATOR ── -->
  <rect x="740" y="70" width="180" height="70" rx="8" fill="#2d1b1b" stroke="#f97316" stroke-width="2"/>
  <text x="830" y="94" text-anchor="middle" fill="#fb923c" font-weight="bold" font-size="13">Hermes Orchestrator</text>
  <text x="830" y="110" text-anchor="middle" fill="#fdba74" font-size="10">orchestrator.py · KOM</text>
  <text x="830" y="126" text-anchor="middle" fill="#fb923c" font-size="11" font-weight="bold">:8091</text>

  <!-- ── ZEROCLAW ── -->
  <rect x="740" y="180" width="180" height="60" rx="8" fill="#1c1c2d" stroke="#f472b6" stroke-width="1.5"/>
  <text x="830" y="204" text-anchor="middle" fill="#f9a8d4" font-weight="bold" font-size="13">ZeroClaw</text>
  <text x="830" y="220" text-anchor="middle" fill="#fbcfe8" font-size="10">adapters.py · 4 adapters</text>
  <text x="830" y="233" text-anchor="middle" fill="#f9a8d4" font-size="11" font-weight="bold">via Hermes</text>

  <!-- ── DISCORD BOTS ── -->
  <rect x="740" y="280" width="180" height="80" rx="8" fill="#1e1b2e" stroke="#818cf8" stroke-width="1.5"/>
  <text x="830" y="302" text-anchor="middle" fill="#a5b4fc" font-weight="bold" font-size="12">Hermes Discord Bots</text>
  <text x="830" y="318" text-anchor="middle" fill="#c7d2fe" font-size="10">H1 :8200 · H2 :8201</text>
  <text x="830" y="332" text-anchor="middle" fill="#c7d2fe" font-size="10">H3 :8202 · H4 :8203</text>
  <text x="830" y="346" text-anchor="middle" fill="#c7d2fe" font-size="10">H5 :8204</text>

  <!-- ── LM STUDIO ── -->
  <rect x="480" y="290" width="120" height="50" rx="8" fill="#1a1a2e" stroke="#e879f9" stroke-width="1.5"/>
  <text x="540" y="312" text-anchor="middle" fill="#e879f9" font-weight="bold" font-size="12">LM Studio</text>
  <text x="540" y="328" text-anchor="middle" fill="#f0abfc" font-size="11" font-weight="bold">:1234</text>

  <!-- ── OLLAMA ── -->
  <rect x="615" y="290" width="100" height="50" rx="8" fill="#1a2820" stroke="#34d399" stroke-width="1.5"/>
  <text x="665" y="312" text-anchor="middle" fill="#34d399" font-weight="bold" font-size="12">Ollama</text>
  <text x="665" y="328" text-anchor="middle" fill="#6ee7b7" font-size="11" font-weight="bold">:11434</text>

  <!-- ── LITELLM ── -->
  <rect x="480" y="360" width="120" height="50" rx="8" fill="#1a1520" stroke="#c084fc" stroke-width="1.5"/>
  <text x="540" y="382" text-anchor="middle" fill="#c084fc" font-weight="bold" font-size="12">LiteLLM Proxy</text>
  <text x="540" y="398" text-anchor="middle" fill="#d8b4fe" font-size="11" font-weight="bold">:4000</text>

  <!-- ── SHIBA MEMORY ── -->
  <rect x="615" y="360" width="100" height="50" rx="8" fill="#1a1a10" stroke="#facc15" stroke-width="1.5"/>
  <text x="665" y="382" text-anchor="middle" fill="#facc15" font-weight="bold" font-size="11">Shiba Memory</text>
  <text x="665" y="398" text-anchor="middle" fill="#fde68a" font-size="11" font-weight="bold">:18789</text>

  <!-- ── BLOCKCHAIN AUDIT ── -->
  <rect x="220" y="290" width="180" height="60" rx="8" fill="#1a1620" stroke="#a78bfa" stroke-width="1.5"/>
  <text x="310" y="313" text-anchor="middle" fill="#c4b5fd" font-weight="bold" font-size="12">Blockchain Audit</text>
  <text x="310" y="329" text-anchor="middle" fill="#ddd6fe" font-size="10">audit_chain · consensus</text>
  <text x="310" y="342" text-anchor="middle" fill="#c4b5fd" font-size="10">audit_agent · dashboard</text>

  <!-- ARROWS: Browser → WebUI -->
  <line x1="160" y1="105" x2="218" y2="105" stroke="#3b82f6" stroke-width="1.5" marker-end="url(#arr-blue)"/>
  <text x="188" y="99" text-anchor="middle" fill="#60a5fa" font-size="9">HTTP</text>

  <!-- WebUI → Runtime -->
  <line x1="400" y1="105" x2="478" y2="105" stroke="#22c55e" stroke-width="1.5" marker-end="url(#arr-grn)"/>
  <text x="439" y="99" text-anchor="middle" fill="#4ade80" font-size="9">proxy</text>

  <!-- Runtime → Hermes -->
  <line x1="660" y1="105" x2="738" y2="105" stroke="#f97316" stroke-width="1.5" marker-end="url(#arr)"/>
  <text x="699" y="99" text-anchor="middle" fill="#fb923c" font-size="9">tasks</text>

  <!-- Hermes → ZeroClaw -->
  <line x1="830" y1="140" x2="830" y2="178" stroke="#f472b6" stroke-width="1.5" marker-end="url(#arr)"/>

  <!-- Hermes → Discord -->
  <line x1="830" y1="140" x2="830" y2="278" stroke="#818cf8" stroke-width="1.5" marker-end="url(#arr)"/>

  <!-- WebUI → KiloCode -->
  <line x1="310" y1="140" x2="310" y2="178" stroke="#8b5cf6" stroke-width="1.5" marker-end="url(#arr)"/>

  <!-- Runtime → Settings -->
  <line x1="570" y1="140" x2="570" y2="178" stroke="#86efac" stroke-width="1.5" marker-end="url(#arr)"/>

  <!-- Runtime → LM Studio -->
  <line x1="570" y1="140" x2="540" y2="288" stroke="#e879f9" stroke-width="1" stroke-dasharray="4,3" marker-end="url(#arr)"/>
  <!-- Runtime → Ollama -->
  <line x1="570" y1="140" x2="665" y2="288" stroke="#34d399" stroke-width="1" stroke-dasharray="4,3" marker-end="url(#arr)"/>
  <!-- Runtime → LiteLLM -->
  <line x1="520" y1="290" x2="520" y2="358" stroke="#c084fc" stroke-width="1" stroke-dasharray="4,3" marker-end="url(#arr)"/>

  <!-- WebUI → Blockchain Audit -->
  <line x1="310" y1="180" x2="310" y2="288" stroke="#a78bfa" stroke-width="1" stroke-dasharray="4,3" marker-end="url(#arr)"/>

  <!-- ── LEGEND ── -->
  <rect x="20" y="430" width="320" height="130" rx="6" fill="#1e293b" stroke="#334155" stroke-width="1"/>
  <text x="180" y="452" text-anchor="middle" fill="#f8fafc" font-weight="bold" font-size="11">Legend</text>
  <line x1="35" y1="466" x2="70" y2="466" stroke="#3b82f6" stroke-width="2" marker-end="url(#arr-blue)"/>
  <text x="80" y="470" fill="#94a3b8" font-size="10">HTTP / WebUI request</text>
  <line x1="35" y1="483" x2="70" y2="483" stroke="#22c55e" stroke-width="2" marker-end="url(#arr-grn)"/>
  <text x="80" y="487" fill="#94a3b8" font-size="10">Proxy / API call</text>
  <line x1="35" y1="500" x2="70" y2="500" stroke="#f97316" stroke-width="2" marker-end="url(#arr)"/>
  <text x="80" y="504" fill="#94a3b8" font-size="10">Task / orchestration</text>
  <line x1="35" y1="517" x2="70" y2="517" stroke="#555" stroke-width="1.5" stroke-dasharray="4,3" marker-end="url(#arr)"/>
  <text x="80" y="521" fill="#94a3b8" font-size="10">Provider / inference route</text>
  <text x="35" y="543" fill="#94a3b8" font-size="10">Port colours match border colour of each service box.</text>

  <!-- ── PORT TABLE ── -->
  <rect x="360" y="430" width="370" height="195" rx="6" fill="#1e293b" stroke="#334155" stroke-width="1"/>
  <text x="545" y="452" text-anchor="middle" fill="#f8fafc" font-weight="bold" font-size="11">Canonical Port Registry</text>
  <text x="375" y="472" fill="#60a5fa" font-size="10">:8095</text><text x="430" y="472" fill="#94a3b8" font-size="10">WebUI Hub (hub.html / dashboard.py)</text>
  <text x="375" y="489" fill="#4ade80" font-size="10">:8081</text><text x="430" y="489" fill="#94a3b8" font-size="10">Runtime Core API (core.py)</text>
  <text x="375" y="506" fill="#86efac" font-size="10">:8082</text><text x="430" y="506" fill="#94a3b8" font-size="10">Settings Service (settings_canonical.py)</text>
  <text x="375" y="523" fill="#fb923c" font-size="10">:8091</text><text x="430" y="523" fill="#94a3b8" font-size="10">Hermes Orchestrator (orchestrator.py)</text>
  <text x="375" y="540" fill="#e879f9" font-size="10">:1234</text><text x="430" y="540" fill="#94a3b8" font-size="10">LM Studio inference server</text>
  <text x="375" y="557" fill="#34d399" font-size="10">:11434</text><text x="430" y="557" fill="#94a3b8" font-size="10">Ollama inference server</text>
  <text x="375" y="574" fill="#c084fc" font-size="10">:4000</text><text x="430" y="574" fill="#94a3b8" font-size="10">LiteLLM proxy</text>
  <text x="375" y="591" fill="#facc15" font-size="10">:18789</text><text x="430" y="591" fill="#94a3b8" font-size="10">Shiba Memory Gateway</text>
  <text x="375" y="608" fill="#a5b4fc" font-size="10">:8200-8204</text><text x="430" y="608" fill="#94a3b8" font-size="10">Hermes Discord Bots (H1–H5)</text>
</svg>
