<svg xmlns="http://www.w3.org/2000/svg" viewBox="0 0 560 480" width="560" height="480"
     style="font-family: -apple-system, BlinkMacSystemFont, 'Segoe UI', sans-serif; background: #1e1e1e;">

  <!-- Title -->
  <text x="20" y="30" font-size="14" font-weight="700" fill="#cccccc" letter-spacing="0.05em">
    KiloCode Custom Tab Icons
  </text>
  <text x="20" y="46" font-size="10" fill="#6e7681">
    16x16 · currentColor · viewBox="0 0 16 16" · tab-icons.tsx
  </text>

  <!-- Grid: 4 columns, 3 rows, 130px per cell -->

  <!-- ===== Row 0 ===== -->

  <!-- Cell 0,0: ZeroClawIcon -->
  <g transform="translate(20, 70)">
    <rect width="120" height="100" rx="6" fill="#252526" stroke="#3e3e42" stroke-width="1"/>
    <!-- icon scaled 2.5x centered in 24px box at (48,26) -->
    <g transform="translate(48,26) scale(2.5) translate(-8,-8)">
      <!-- Shield -->
      <path d="M8 1.5 L13.5 3.5 L13.5 8.5 C13.5 11.5 8 14.5 8 14.5 C8 14.5 2.5 11.5 2.5 8.5 L2.5 3.5 Z"
            fill="none" stroke="#569cd6" stroke-width="1.25" stroke-linecap="round" stroke-linejoin="round"/>
      <line x1="5" y1="7" x2="7" y2="7" stroke="#569cd6" stroke-width="1.25" stroke-linecap="round"/>
      <circle cx="4.5" cy="7" r="0.75" fill="#569cd6"/>
      <line x1="9" y1="7" x2="11" y2="7" stroke="#569cd6" stroke-width="1.25" stroke-linecap="round"/>
      <circle cx="11.5" cy="7" r="0.75" fill="#569cd6"/>
      <line x1="8" y1="7" x2="8" y2="10" stroke="#569cd6" stroke-width="1.25" stroke-linecap="round"/>
      <circle cx="8" cy="6.5" r="0.75" fill="#569cd6"/>
      <circle cx="8" cy="10.5" r="0.75" fill="#569cd6"/>
      <line x1="7" y1="7" x2="9" y2="7" stroke="#569cd6" stroke-width="1.25" stroke-linecap="round"/>
    </g>
    <text x="60" y="80" text-anchor="middle" font-size="10" font-weight="600" fill="#cccccc">ZeroClaw</text>
    <text x="60" y="93" text-anchor="middle" font-size="9" fill="#6e7681">Shield + circuit paths</text>
  </g>

  <!-- Cell 0,1: OpenClawIcon -->
  <g transform="translate(150, 70)">
    <rect width="120" height="100" rx="6" fill="#252526" stroke="#3e3e42" stroke-width="1"/>
    <g transform="translate(48,26) scale(2.5) translate(-8,-8)">
      <!-- Chat bubble -->
      <path d="M3 2.5 L11 2.5 Q12.5 2.5 12.5 4 L12.5 7.5 Q12.5 9 11 9 L7.5 9 L5.5 11 L5.5 9 L3 9 Q1.5 9 1.5 7.5 L1.5 4 Q1.5 2.5 3 2.5 Z"
            fill="none" stroke="#ce9178" stroke-width="1.25" stroke-linecap="round" stroke-linejoin="round"/>
      <path d="M10.5 10 C11.5 10.5 13 10 13.5 11.5 C14 13 12.5 14.5 11 13.5"
            fill="none" stroke="#ce9178" stroke-width="1.25" stroke-linecap="round" stroke-linejoin="round"/>
      <path d="M9.5 11.5 C10 12.5 9.5 14 8.5 14 C7.5 14 7 13 7.5 12"
            fill="none" stroke="#ce9178" stroke-width="1.25" stroke-linecap="round" stroke-linejoin="round"/>
      <circle cx="10" cy="10.5" r="0.75" fill="#ce9178"/>
    </g>
    <text x="60" y="80" text-anchor="middle" font-size="10" font-weight="600" fill="#cccccc">OpenClaw</text>
    <text x="60" y="93" text-anchor="middle" font-size="9" fill="#6e7681">Claw + chat bubble</text>
  </g>

  <!-- Cell 0,2: HermesIcon -->
  <g transform="translate(280, 70)">
    <rect width="120" height="100" rx="6" fill="#252526" stroke="#3e3e42" stroke-width="1"/>
    <g transform="translate(48,26) scale(2.5) translate(-8,-8)">
      <rect x="3.5" y="5" width="9" height="7" rx="0.75"
            fill="none" stroke="#c586c0" stroke-width="1.25" stroke-linecap="round" stroke-linejoin="round"/>
      <polyline points="3.5,5.5 8,9 12.5,5.5"
                fill="none" stroke="#c586c0" stroke-width="1.25" stroke-linecap="round" stroke-linejoin="round"/>
      <path d="M3.5 6 C2.5 5 1.5 4 1 3 C2 3.25 3 4 3.5 5"
            fill="none" stroke="#c586c0" stroke-width="1.25" stroke-linecap="round" stroke-linejoin="round"/>
      <path d="M3.5 7.5 C2 7 1 6 0.5 5 C1.5 5 2.5 6 3.5 7"
            fill="none" stroke="#c586c0" stroke-width="1.25" stroke-linecap="round" stroke-linejoin="round"/>
      <path d="M12.5 6 C13.5 5 14.5 4 15 3 C14 3.25 13 4 12.5 5"
            fill="none" stroke="#c586c0" stroke-width="1.25" stroke-linecap="round" stroke-linejoin="round"/>
      <path d="M12.5 7.5 C14 7 15 6 15.5 5 C14.5 5 13.5 6 12.5 7"
            fill="none" stroke="#c586c0" stroke-width="1.25" stroke-linecap="round" stroke-linejoin="round"/>
      <line x1="5" y1="13.5" x2="8" y2="13.5" stroke="#c586c0" stroke-width="1.25" stroke-linecap="round"/>
      <line x1="4" y1="14.5" x2="7" y2="14.5" stroke="#c586c0" stroke-width="1.25" stroke-linecap="round"/>
    </g>
    <text x="60" y="80" text-anchor="middle" font-size="10" font-weight="600" fill="#cccccc">Hermes</text>
    <text x="60" y="93" text-anchor="middle" font-size="9" fill="#6e7681">Winged envelope</text>
  </g>

  <!-- Cell 0,3: HubIcon -->
  <g transform="translate(410, 70)">
    <rect width="120" height="100" rx="6" fill="#252526" stroke="#3e3e42" stroke-width="1"/>
    <g transform="translate(48,26) scale(2.5) translate(-8,-8)">
      <circle cx="8" cy="8" r="2" fill="none" stroke="#4ec9b0" stroke-width="1.25"/>
      <circle cx="8" cy="1.5" r="1" fill="none" stroke="#4ec9b0" stroke-width="1.25"/>
      <line x1="8" y1="2.5" x2="8" y2="6" stroke="#4ec9b0" stroke-width="1.25" stroke-linecap="round"/>
      <circle cx="13.5" cy="4.5" r="1" fill="none" stroke="#4ec9b0" stroke-width="1.25"/>
      <line x1="12.65" y1="5.35" x2="9.4" y2="6.9" stroke="#4ec9b0" stroke-width="1.25" stroke-linecap="round"/>
      <circle cx="13.5" cy="11.5" r="1" fill="none" stroke="#4ec9b0" stroke-width="1.25"/>
      <line x1="12.65" y1="10.65" x2="9.4" y2="9.1" stroke="#4ec9b0" stroke-width="1.25" stroke-linecap="round"/>
      <circle cx="8" cy="14.5" r="1" fill="none" stroke="#4ec9b0" stroke-width="1.25"/>
      <line x1="8" y1="13.5" x2="8" y2="10" stroke="#4ec9b0" stroke-width="1.25" stroke-linecap="round"/>
      <circle cx="2.5" cy="11.5" r="1" fill="none" stroke="#4ec9b0" stroke-width="1.25"/>
      <line x1="3.35" y1="10.65" x2="6.6" y2="9.1" stroke="#4ec9b0" stroke-width="1.25" stroke-linecap="round"/>
      <circle cx="2.5" cy="4.5" r="1" fill="none" stroke="#4ec9b0" stroke-width="1.25"/>
      <line x1="3.35" y1="5.35" x2="6.6" y2="6.9" stroke="#4ec9b0" stroke-width="1.25" stroke-linecap="round"/>
    </g>
    <text x="60" y="80" text-anchor="middle" font-size="10" font-weight="600" fill="#cccccc">Hub</text>
    <text x="60" y="93" text-anchor="middle" font-size="9" fill="#6e7681">Hub-spoke network</text>
  </g>

  <!-- ===== Row 1 ===== -->

  <!-- Cell 1,0: VPSIcon -->
  <g transform="translate(20, 185)">
    <rect width="120" height="100" rx="6" fill="#252526" stroke="#3e3e42" stroke-width="1"/>
    <g transform="translate(48,26) scale(2.5) translate(-8,-8)">
      <rect x="2" y="1.5" width="12" height="13" rx="1"
            fill="none" stroke="#9cdcfe" stroke-width="1.25" stroke-linecap="round" stroke-linejoin="round"/>
      <rect x="3.5" y="3" width="9" height="3" rx="0.5"
            fill="none" stroke="#9cdcfe" stroke-width="1.25" stroke-linecap="round" stroke-linejoin="round"/>
      <circle cx="11.5" cy="4.5" r="0.6" fill="#9cdcfe"/>
      <rect x="3.5" y="7" width="9" height="3" rx="0.5"
            fill="none" stroke="#9cdcfe" stroke-width="1.25" stroke-linecap="round" stroke-linejoin="round"/>
      <circle cx="11.5" cy="8.5" r="0.6" fill="#9cdcfe"/>
      <rect x="3.5" y="11" width="9" height="2" rx="0.5"
            fill="none" stroke="#9cdcfe" stroke-width="1.25" stroke-linecap="round" stroke-linejoin="round"/>
      <circle cx="11.5" cy="12" r="0.6" fill="#9cdcfe"/>
      <line x1="4.5" y1="4.5" x2="9.5" y2="4.5" stroke="#9cdcfe" stroke-width="1.25"
            stroke-linecap="round" stroke-dasharray="1.5 1"/>
    </g>
    <text x="60" y="80" text-anchor="middle" font-size="10" font-weight="600" fill="#cccccc">VPS</text>
    <text x="60" y="93" text-anchor="middle" font-size="9" fill="#6e7681">Server rack + LEDs</text>
  </g>

  <!-- Cell 1,1: SSHIcon -->
  <g transform="translate(150, 185)">
    <rect width="120" height="100" rx="6" fill="#252526" stroke="#3e3e42" stroke-width="1"/>
    <g transform="translate(48,26) scale(2.5) translate(-8,-8)">
      <rect x="1.5" y="2" width="13" height="10" rx="1"
            fill="none" stroke="#dcdcaa" stroke-width="1.25" stroke-linecap="round" stroke-linejoin="round"/>
      <line x1="1.5" y1="4.5" x2="14.5" y2="4.5" stroke="#dcdcaa" stroke-width="1.25" stroke-linecap="round"/>
      <polyline points="3,7 5,8.5 3,10"
                fill="none" stroke="#dcdcaa" stroke-width="1.25" stroke-linecap="round" stroke-linejoin="round"/>
      <circle cx="11" cy="8.5" r="2" fill="none" stroke="#dcdcaa" stroke-width="1.25"/>
      <line x1="13" y1="8.5" x2="15" y2="8.5" stroke="#dcdcaa" stroke-width="1.25" stroke-linecap="round"/>
      <line x1="14" y1="8.5" x2="14" y2="9.5" stroke="#dcdcaa" stroke-width="1.25" stroke-linecap="round"/>
    </g>
    <text x="60" y="80" text-anchor="middle" font-size="10" font-weight="600" fill="#cccccc">SSH</text>
    <text x="60" y="93" text-anchor="middle" font-size="9" fill="#6e7681">Terminal + key</text>
  </g>

  <!-- Cell 1,2: TrainingIcon -->
  <g transform="translate(280, 185)">
    <rect width="120" height="100" rx="6" fill="#252526" stroke="#3e3e42" stroke-width="1"/>
    <g transform="translate(48,26) scale(2.5) translate(-8,-8)">
      <!-- Input layer -->
      <circle cx="2.5" cy="5" r="1.25" fill="none" stroke="#f48771" stroke-width="1.25"/>
      <circle cx="2.5" cy="11" r="1.25" fill="none" stroke="#f48771" stroke-width="1.25"/>
      <!-- Hidden layer -->
      <circle cx="8" cy="3" r="1.25" fill="none" stroke="#f48771" stroke-width="1.25"/>
      <circle cx="8" cy="8" r="1.25" fill="none" stroke="#f48771" stroke-width="1.25"/>
      <circle cx="8" cy="13" r="1.25" fill="none" stroke="#f48771" stroke-width="1.25"/>
      <!-- Output layer -->
      <circle cx="13.5" cy="5.5" r="1.25" fill="none" stroke="#f48771" stroke-width="1.25"/>
      <circle cx="13.5" cy="10.5" r="1.25" fill="none" stroke="#f48771" stroke-width="1.25"/>
      <!-- Edges input→hidden -->
      <line x1="3.75" y1="5" x2="6.75" y2="3" stroke="#f48771" stroke-width="0.75" opacity="0.6"/>
      <line x1="3.75" y1="5" x2="6.75" y2="8" stroke="#f48771" stroke-width="0.75" opacity="0.6"/>
      <line x1="3.75" y1="5" x2="6.75" y2="13" stroke="#f48771" stroke-width="0.75" opacity="0.6"/>
      <line x1="3.75" y1="11" x2="6.75" y2="3" stroke="#f48771" stroke-width="0.75" opacity="0.6"/>
      <line x1="3.75" y1="11" x2="6.75" y2="8" stroke="#f48771" stroke-width="0.75" opacity="0.6"/>
      <line x1="3.75" y1="11" x2="6.75" y2="13" stroke="#f48771" stroke-width="0.75" opacity="0.6"/>
      <!-- Edges hidden→output -->
      <line x1="9.25" y1="3" x2="12.25" y2="5.5" stroke="#f48771" stroke-width="0.75" opacity="0.6"/>
      <line x1="9.25" y1="8" x2="12.25" y2="5.5" stroke="#f48771" stroke-width="0.75" opacity="0.6"/>
      <line x1="9.25" y1="13" x2="12.25" y2="5.5" stroke="#f48771" stroke-width="0.75" opacity="0.6"/>
      <line x1="9.25" y1="3" x2="12.25" y2="10.5" stroke="#f48771" stroke-width="0.75" opacity="0.6"/>
      <line x1="9.25" y1="8" x2="12.25" y2="10.5" stroke="#f48771" stroke-width="0.75" opacity="0.6"/>
      <line x1="9.25" y1="13" x2="12.25" y2="10.5" stroke="#f48771" stroke-width="0.75" opacity="0.6"/>
    </g>
    <text x="60" y="80" text-anchor="middle" font-size="10" font-weight="600" fill="#cccccc">Training</text>
    <text x="60" y="93" text-anchor="middle" font-size="9" fill="#6e7681">Neural network graph</text>
  </g>

  <!-- Cell 1,3: MemoryIcon -->
  <g transform="translate(410, 185)">
    <rect width="120" height="100" rx="6" fill="#252526" stroke="#3e3e42" stroke-width="1"/>
    <g transform="translate(48,26) scale(2.5) translate(-8,-8)">
      <path d="M7.5 13 L7.5 4 C7.5 2.5 5.5 1.5 4 2.5 C2.5 3.5 2 5 2.5 6.5 C1.5 7 1 8 1.5 9 C1 9.5 1 10.5 1.5 11 C1.5 12.5 3 13.5 4.5 13 Z"
            fill="none" stroke="#b5cea8" stroke-width="1.25" stroke-linecap="round" stroke-linejoin="round"/>
      <path d="M8.5 13 L8.5 4 C8.5 2.5 10.5 1.5 12 2.5 C13.5 3.5 14 5 13.5 6.5 C14.5 7 15 8 14.5 9 C15 9.5 15 10.5 14.5 11 C14.5 12.5 13 13.5 11.5 13 Z"
            fill="none" stroke="#b5cea8" stroke-width="1.25" stroke-linecap="round" stroke-linejoin="round"/>
      <line x1="7.5" y1="13" x2="8.5" y2="13" stroke="#b5cea8" stroke-width="1.25" stroke-linecap="round"/>
      <line x1="7.5" y1="8" x2="8.5" y2="8" stroke="#b5cea8" stroke-width="1.25" stroke-linecap="round"/>
      <ellipse cx="12" cy="11.5" rx="2.5" ry="1" fill="none" stroke="#b5cea8" stroke-width="1.25"/>
      <line x1="9.5" y1="11.5" x2="9.5" y2="14" stroke="#b5cea8" stroke-width="1.25" stroke-linecap="round"/>
      <line x1="14.5" y1="11.5" x2="14.5" y2="14" stroke="#b5cea8" stroke-width="1.25" stroke-linecap="round"/>
      <ellipse cx="12" cy="14" rx="2.5" ry="1" fill="none" stroke="#b5cea8" stroke-width="1.25"/>
    </g>
    <text x="60" y="80" text-anchor="middle" font-size="10" font-weight="600" fill="#cccccc">Memory</text>
    <text x="60" y="93" text-anchor="middle" font-size="9" fill="#6e7681">Brain + database</text>
  </g>

  <!-- ===== Row 2 ===== -->

  <!-- Cell 2,0: GovernanceIcon -->
  <g transform="translate(20, 300)">
    <rect width="120" height="100" rx="6" fill="#252526" stroke="#3e3e42" stroke-width="1"/>
    <g transform="translate(48,26) scale(2.5) translate(-8,-8)">
      <path d="M8 1.5 L13.5 3.5 L13.5 8.5 C13.5 11.5 8 14.5 8 14.5 C8 14.5 2.5 11.5 2.5 8.5 L2.5 3.5 Z"
            fill="none" stroke="#569cd6" stroke-width="1.25" stroke-linecap="round" stroke-linejoin="round"/>
      <polyline points="5,8 7,10.5 11,6"
                fill="none" stroke="#569cd6" stroke-width="1.5" stroke-linecap="round" stroke-linejoin="round"/>
    </g>
    <text x="60" y="80" text-anchor="middle" font-size="10" font-weight="600" fill="#cccccc">Governance</text>
    <text x="60" y="93" text-anchor="middle" font-size="9" fill="#6e7681">Shield + checkmark</text>
  </g>

  <!-- Cell 2,1: SpeechIcon -->
  <g transform="translate(150, 300)">
    <rect width="120" height="100" rx="6" fill="#252526" stroke="#3e3e42" stroke-width="1"/>
    <g transform="translate(48,26) scale(2.5) translate(-8,-8)">
      <line x1="1.5" y1="9.5" x2="1.5" y2="6.5" stroke="#c586c0" stroke-width="1.25" stroke-linecap="round"/>
      <line x1="3.5" y1="11"  x2="3.5" y2="5"   stroke="#c586c0" stroke-width="1.25" stroke-linecap="round"/>
      <line x1="5.5" y1="12.5" x2="5.5" y2="3.5" stroke="#c586c0" stroke-width="1.25" stroke-linecap="round"/>
      <line x1="7.5" y1="13.5" x2="7.5" y2="2.5" stroke="#c586c0" stroke-width="1.25" stroke-linecap="round"/>
      <line x1="9.5" y1="12.5" x2="9.5" y2="3.5" stroke="#c586c0" stroke-width="1.25" stroke-linecap="round"/>
      <line x1="11.5" y1="11"  x2="11.5" y2="5"   stroke="#c586c0" stroke-width="1.25" stroke-linecap="round"/>
      <line x1="13.5" y1="9.5" x2="13.5" y2="6.5" stroke="#c586c0" stroke-width="1.25" stroke-linecap="round"/>
    </g>
    <text x="60" y="80" text-anchor="middle" font-size="10" font-weight="600" fill="#cccccc">Speech</text>
    <text x="60" y="93" text-anchor="middle" font-size="9" fill="#6e7681">Sound waveform</text>
  </g>

  <!-- Cell 2,2: RoutingIcon -->
  <g transform="translate(280, 300)">
    <rect width="120" height="100" rx="6" fill="#252526" stroke="#3e3e42" stroke-width="1"/>
    <g transform="translate(48,26) scale(2.5) translate(-8,-8)">
      <circle cx="2.5" cy="8" r="1.5" fill="none" stroke="#4ec9b0" stroke-width="1.25"/>
      <line x1="4" y1="8" x2="6" y2="8" stroke="#4ec9b0" stroke-width="1.25" stroke-linecap="round"/>
      <circle cx="6.5" cy="8" r="0.5" fill="#4ec9b0"/>
      <path d="M6.5 8 C7.5 8 8 5.5 9 5"
            fill="none" stroke="#4ec9b0" stroke-width="1.25" stroke-linecap="round" stroke-linejoin="round"/>
      <line x1="9" y1="5" x2="11" y2="5" stroke="#4ec9b0" stroke-width="1.25" stroke-linecap="round"/>
      <circle cx="12.5" cy="5" r="1.5" fill="none" stroke="#4ec9b0" stroke-width="1.25"/>
      <path d="M6.5 8 C7.5 8 8 10.5 9 11"
            fill="none" stroke="#4ec9b0" stroke-width="1.25" stroke-linecap="round" stroke-linejoin="round"/>
      <line x1="9" y1="11" x2="11" y2="11" stroke="#4ec9b0" stroke-width="1.25" stroke-linecap="round"/>
      <circle cx="12.5" cy="11" r="1.5" fill="none" stroke="#4ec9b0" stroke-width="1.25"/>
      <polyline points="10.5,4 11.5,5 10.5,6"
                fill="none" stroke="#4ec9b0" stroke-width="1.25" stroke-linecap="round" stroke-linejoin="round"/>
      <polyline points="10.5,10 11.5,11 10.5,12"
                fill="none" stroke="#4ec9b0" stroke-width="1.25" stroke-linecap="round" stroke-linejoin="round"/>
    </g>
    <text x="60" y="80" text-anchor="middle" font-size="10" font-weight="600" fill="#cccccc">Routing</text>
    <text x="60" y="93" text-anchor="middle" font-size="9" fill="#6e7681">Branching flow arrows</text>
  </g>

  <!-- Cell 2,3: — spacer / legend -->
  <g transform="translate(410, 300)">
    <rect width="120" height="100" rx="6" fill="#252526" stroke="#3e3e42" stroke-width="1"/>
    <text x="60" y="30" text-anchor="middle" font-size="9" font-weight="700" fill="#6e7681" letter-spacing="0.08em">COLOR KEY</text>
    <circle cx="25" cy="46" r="4" fill="#569cd6"/>
    <text x="35" y="50" font-size="9" fill="#cccccc">ZeroClaw / SSH</text>
    <circle cx="25" cy="62" r="4" fill="#ce9178"/>
    <text x="35" y="66" font-size="9" fill="#cccccc">OpenClaw</text>
    <circle cx="25" cy="78" r="4" fill="#c586c0"/>
    <text x="35" y="82" font-size="9" fill="#cccccc">Hermes / Speech</text>
    <circle cx="25" cy="94" r="4" fill="#4ec9b0"/>
    <text x="35" y="98" font-size="9" fill="#cccccc">Hub / Routing</text>
  </g>

  <!-- Footer -->
  <text x="20" y="445" font-size="9" fill="#3e3e42">
    All icons use currentColor in production — colors shown here are for visual reference only.
  </text>
  <text x="20" y="458" font-size="9" fill="#3e3e42">
    Source: packages/kilo-vscode/webview-ui/src/components/settings/tab-icons.tsx
  </text>
</svg>
